<?xml version="1.0" standalone="no"?>
<!DOCTYPE svg PUBLIC "-//W3C//DTD SVG 20010904//EN"
 "http://www.w3.org/TR/2001/REC-SVG-20010904/DTD/svg10.dtd">
<svg version="1.0" xmlns="http://www.w3.org/2000/svg"
 width="897.000000pt" height="846.000000pt" viewBox="0 0 897.000000 846.000000"
 preserveAspectRatio="xMidYMid meet">
<metadata>
Created by potrace 1.10, written by Peter Selinger 2001-2011
</metadata>
<g transform="translate(0.000000,846.000000) scale(0.100000,-0.100000)"
fill="#e70000" stroke="none">
<path d="M2960 8447 c0 -8 -12 -19 -26 -26 -50 -23 -107 -77 -173 -167 l-67
-91 -12 -109 c-7 -60 -17 -167 -22 -239 -15 -219 -29 -395 -40 -505 -6 -58
-15 -163 -21 -235 -5 -71 -16 -202 -24 -290 -22 -238 -43 -475 -54 -610 -6
-66 -15 -165 -21 -220 -6 -55 -15 -149 -20 -210 -16 -208 -30 -360 -40 -450
-6 -49 -15 -144 -20 -210 -14 -182 -29 -358 -40 -475 -6 -58 -15 -166 -20
-240 -11 -163 -25 -340 -41 -513 -8 -80 -9 -131 -3 -137 6 -6 105 -4 264 4
144 8 568 17 970 20 1266 10 1783 50 2230 172 131 35 368 154 530 265 327 224
662 607 927 1059 40 69 78 132 83 140 5 8 46 87 91 175 45 88 88 169 95 180
31 45 20 59 -103 135 -65 40 -185 114 -268 165 -82 52 -213 133 -290 180 -77
48 -196 122 -265 165 -69 44 -177 111 -240 150 -63 40 -160 100 -215 135 -55
35 -140 89 -190 120 -49 31 -146 92 -215 136 -69 43 -165 104 -215 135 -49 31
-157 98 -240 150 -139 87 -353 219 -400 247 -11 7 -42 26 -70 44 -106 66 -517
314 -562 338 -26 14 -55 30 -63 36 -8 5 -71 42 -140 82 -125 74 -147 87 -315
180 -97 53 -166 92 -260 144 -87 49 -223 113 -240 113 -7 0 -16 4 -19 9 -3 5
-26 14 -51 20 -28 7 -45 17 -45 26 0 12 -15 15 -70 15 -52 0 -70 -3 -70 -13z
m1360 -1304 c167 -57 355 -206 469 -373 105 -155 121 -179 156 -245 74 -137
111 -211 133 -265 13 -30 27 -64 32 -75 18 -40 60 -179 82 -268 20 -81 23
-117 23 -297 -1 -179 -3 -215 -22 -280 -37 -130 -61 -184 -129 -291 -36 -58
-148 -167 -219 -216 -65 -43 -189 -105 -245 -121 -181 -53 -213 -58 -230 -37
-7 9 -37 64 -66 123 -63 126 -62 129 46 143 231 29 450 169 542 348 43 83 53
140 52 291 -2 153 -14 221 -71 390 -41 122 -40 121 -67 25 -53 -188 -162 -319
-338 -407 -132 -66 -176 -78 -287 -78 -162 1 -274 51 -407 185 -79 79 -172
218 -210 312 -8 21 -19 47 -24 58 -37 85 -70 241 -70 329 0 190 62 367 176
500 120 141 315 254 464 269 58 6 162 -4 210 -20z m1603 -2185 c22 -43 37 -84
34 -91 -5 -13 -35 -29 -522 -267 -170 -84 -442 -217 -603 -296 -161 -79 -303
-144 -315 -144 -18 1 -30 17 -60 81 -30 63 -36 83 -27 94 12 14 102 59 715
360 154 76 375 184 490 241 116 57 219 103 230 101 13 -1 31 -26 58 -79z"/>
<path d="M4092 6879 c-73 -14 -153 -59 -212 -118 -94 -94 -127 -195 -116 -356
10 -154 91 -343 198 -460 86 -94 116 -109 202 -107 166 6 259 21 299 49 122
85 184 252 158 426 -33 216 -159 432 -304 520 -65 40 -159 59 -225 46z"/>
<path d="M2376 7742 c-3 -6 -26 -48 -49 -94 -24 -45 -58 -110 -76 -143 -57
-104 -115 -211 -228 -425 -25 -47 -54 -98 -63 -115 -10 -16 -41 -75 -70 -130
-29 -55 -146 -271 -260 -480 -114 -209 -222 -407 -240 -440 -18 -33 -56 -103
-85 -155 -29 -52 -69 -126 -90 -165 -21 -38 -61 -113 -90 -165 -29 -52 -68
-124 -87 -160 -20 -36 -76 -139 -125 -230 -50 -91 -106 -194 -125 -230 -20
-36 -49 -90 -65 -120 -80 -146 -98 -179 -128 -235 -18 -33 -54 -100 -80 -150
-26 -49 -62 -117 -80 -150 -18 -33 -55 -103 -82 -155 -28 -52 -66 -124 -85
-160 -42 -78 -117 -219 -168 -315 -21 -38 -52 -97 -69 -129 l-32 -59 4 -166
c7 -274 40 -425 133 -601 42 -80 140 -191 193 -218 21 -11 72 -25 112 -31 69
-9 77 -8 144 18 104 42 290 157 450 278 97 74 263 213 380 318 44 40 132 119
195 176 182 163 408 385 459 450 29 38 39 93 51 294 6 99 17 266 25 370 7 105
18 262 24 350 6 88 15 207 21 265 5 58 12 155 15 215 3 61 10 153 15 205 6 52
14 167 20 255 11 188 25 379 40 560 6 72 15 193 20 270 13 215 29 428 40 560
6 66 15 188 21 270 5 83 16 242 23 355 13 183 11 242 -8 212z m-368 -1662 c30
-28 36 -59 28 -154 -15 -200 -168 -556 -318 -738 -21 -26 -38 -51 -38 -57 0
-6 14 -11 30 -11 41 0 70 -47 70 -115 0 -93 -46 -285 -101 -422 -6 -15 -15
-37 -19 -48 -61 -155 -192 -385 -304 -535 -168 -223 -443 -449 -550 -450 -27
0 -28 2 -22 33 7 36 41 154 60 207 11 32 16 35 61 41 110 14 287 151 417 324
85 113 176 278 194 351 4 16 10 34 14 39 37 53 72 263 51 303 -27 50 -83 24
-244 -111 -70 -59 -76 -47 -40 83 27 97 34 109 102 168 190 164 259 247 335
397 68 135 106 254 109 338 5 143 -136 52 -425 -273 -56 -64 -67 -72 -74 -56
-4 10 -2 33 4 50 5 17 20 65 33 106 20 69 29 83 122 185 117 129 237 243 313
297 97 70 153 84 192 48z"/>
<path d="M5060 7602 c0 -5 10 -14 23 -21 12 -6 34 -19 49 -29 14 -9 80 -50
145 -90 65 -41 163 -102 218 -137 55 -35 141 -89 190 -120 50 -31 146 -92 215
-136 69 -43 166 -104 215 -135 50 -30 146 -91 215 -134 69 -44 177 -111 240
-150 63 -40 171 -107 240 -151 99 -62 699 -428 778 -474 9 -6 35 -22 57 -36
89 -57 423 -211 615 -284 110 -42 283 -104 335 -119 33 -10 75 -25 93 -32 32
-14 82 -19 82 -9 0 7 -155 154 -262 247 -167 146 -465 362 -633 458 -33 19
-78 45 -100 58 -60 34 -417 209 -818 401 -67 32 -183 88 -257 124 -74 35 -187
89 -250 120 -63 30 -176 84 -250 120 -74 35 -191 92 -260 125 -69 33 -181 87
-250 120 -69 33 -174 83 -235 112 -60 29 -168 81 -239 116 -125 62 -156 73
-156 56z"/>
<path d="M7672 5482 c-49 -98 -107 -207 -129 -242 -22 -36 -57 -96 -78 -135
-48 -89 -219 -345 -304 -455 -339 -440 -648 -709 -1035 -900 l-109 -54 6 -310
c4 -171 11 -432 17 -581 12 -325 28 -822 40 -1305 5 -195 14 -472 19 -615 6
-143 14 -376 17 -517 6 -246 7 -258 26 -258 26 0 72 33 138 100 53 53 71 82
139 230 16 36 46 94 66 130 20 36 57 103 82 150 25 47 54 99 63 115 18 31 48
86 115 210 21 39 61 113 90 165 29 52 69 127 90 165 21 39 61 113 90 165 29
52 68 124 87 160 20 36 117 214 215 395 99 182 196 359 215 395 19 36 60 110
90 165 31 55 71 129 90 165 19 36 60 110 90 165 31 55 71 129 90 165 33 60 49
90 127 233 15 28 43 79 61 112 36 66 77 142 121 223 77 140 94 172 127 232 19
36 46 85 60 110 33 59 77 140 120 220 19 36 46 85 60 110 32 59 76 140 120
220 32 61 47 88 121 223 15 28 45 84 66 122 21 39 42 74 46 79 5 6 9 18 9 28
0 10 9 23 20 30 15 10 20 24 20 55 0 25 -5 43 -11 43 -6 0 -24 11 -41 25 -16
14 -35 25 -42 25 -6 0 -47 11 -91 25 -44 14 -109 35 -145 46 -36 11 -81 26
-100 34 -19 7 -87 32 -150 56 -63 23 -128 47 -145 55 -16 7 -73 31 -125 53
-52 21 -148 65 -213 95 -65 31 -124 56 -131 56 -8 0 -54 -80 -104 -178z m328
-1126 c0 -12 -34 -104 -78 -211 -9 -22 -125 -183 -257 -359 -271 -360 -308
-409 -365 -486 -55 -75 -98 -132 -114 -152 -55 -65 -248 -345 -303 -438 -107
-181 -173 -356 -173 -456 0 -66 27 -104 74 -104 39 0 129 46 210 107 58 45 86
70 198 176 45 42 78 59 78 41 0 -9 -90 -245 -102 -268 -15 -28 -71 -79 -178
-159 -162 -124 -224 -158 -312 -176 -80 -17 -129 -3 -160 47 -20 33 -23 48
-22 137 1 122 23 202 109 405 100 236 199 386 687 1036 202 271 368 494 368
498 0 9 -28 7 -48 -4 -9 -5 -33 -15 -52 -23 -103 -42 -197 -81 -298 -122 -62
-26 -119 -44 -128 -41 -19 7 -17 16 36 151 25 63 53 115 62 115 5 0 24 6 41
14 30 13 75 32 364 150 60 25 155 65 213 89 111 47 150 56 150 33z"/>
<path d="M5735 3606 c-142 -47 -478 -90 -915 -118 -107 -6 -623 -14 -1225 -18
-1363 -8 -1297 -1 -1458 -153 -37 -35 -109 -104 -160 -153 -93 -90 -204 -192
-417 -385 -107 -96 -143 -128 -272 -237 -90 -77 -314 -239 -399 -290 -102 -62
-219 -117 -297 -141 -31 -9 -57 -22 -57 -28 0 -14 91 -77 215 -149 97 -56 114
-65 190 -94 30 -12 64 -26 75 -30 11 -5 45 -19 75 -30 30 -12 64 -26 75 -30
11 -5 45 -19 75 -30 30 -12 64 -26 75 -30 11 -5 45 -19 75 -30 30 -12 64 -26
75 -30 11 -5 45 -19 75 -30 30 -12 64 -26 75 -31 11 -5 432 -173 935 -374 503
-201 924 -370 935 -375 11 -5 45 -19 75 -30 30 -11 64 -25 75 -30 11 -5 45
-19 75 -30 30 -12 89 -36 130 -52 41 -17 108 -43 148 -59 189 -76 370 -148
397 -160 11 -4 45 -18 75 -29 30 -12 64 -26 75 -30 11 -5 45 -19 75 -30 30
-12 64 -26 75 -31 11 -5 45 -18 75 -29 30 -11 64 -25 75 -30 11 -5 45 -19 75
-30 30 -12 64 -26 75 -30 11 -5 45 -19 75 -30 30 -12 64 -26 75 -30 11 -5 45
-19 75 -30 30 -12 64 -26 75 -30 176 -75 280 -100 406 -100 99 0 197 22 206
47 3 9 1 187 -6 397 -6 209 -16 550 -21 756 -5 206 -14 512 -20 680 -11 316
-26 840 -39 1396 -5 177 -12 327 -15 333 -9 13 -11 13 -61 -3z m-1930 -996
c114 -24 145 -36 229 -85 74 -43 175 -143 204 -203 36 -71 43 -123 27 -187
-16 -59 -63 -140 -96 -163 -44 -31 -23 -37 121 -34 144 4 213 -6 320 -46 135
-50 236 -133 323 -265 117 -179 78 -351 -115 -507 -106 -84 -356 -199 -518
-237 -196 -45 -439 -38 -565 17 -11 5 -41 18 -67 28 -89 38 -211 138 -277 227
-52 70 -71 124 -71 203 0 85 27 146 104 232 31 34 55 64 54 66 -2 1 -23 -2
-48 -6 -107 -21 -250 -4 -382 46 -171 65 -318 241 -318 382 0 87 53 187 142
267 85 77 167 122 393 215 78 32 269 67 370 69 46 0 118 -8 170 -19z"/>
<path d="M3500 2398 c-168 -27 -329 -106 -390 -189 -26 -36 -30 -51 -30 -104
0 -50 5 -69 28 -106 128 -200 408 -242 685 -101 195 99 231 248 93 385 -61 59
-136 96 -231 113 -44 8 -84 13 -90 13 -5 -1 -35 -6 -65 -11z"/>
<path d="M4055 1750 c-114 -31 -148 -44 -215 -76 -154 -76 -229 -186 -202
-292 24 -91 112 -192 216 -247 91 -48 222 -71 321 -55 121 19 159 31 251 74
163 78 234 170 221 288 -15 125 -152 251 -326 302 -58 17 -213 20 -266 6z"/>
</g>
</svg>
